<svg xmlns="http://www.w3.org/2000/svg" viewBox="0 0 400 400">
  <defs>
    <linearGradient id="g" x1="0%" y1="0%" x2="100%" y2="100%">
      <stop offset="0%" style="stop-color:#f5e6b8"/>
      <stop offset="100%" style="stop-color:#e4cc88"/>
    </linearGradient>
  </defs>
  <rect width="400" height="400" rx="16" fill="url(#g)"/>
  <g transform="translate(200,135)" fill="none" stroke="#fff" stroke-width="2" stroke-linecap="round" stroke-linejoin="round" opacity="0.9">
    <!-- Open book -->
    <path d="M0,-4 C0,-4 -14,-14 -26,-12 L-26,18 C-14,16 0,24 0,24" fill="#fff" opacity="0.15"/>
    <path d="M0,-4 C0,-4 14,-14 26,-12 L26,18 C14,16 0,24 0,24" fill="#fff" opacity="0.1"/>
    <path d="M0,-4 C0,-4 -14,-14 -26,-12 L-26,18 C-14,16 0,24 0,24"/>
    <path d="M0,-4 C0,-4 14,-14 26,-12 L26,18 C14,16 0,24 0,24"/>
    <line x1="0" y1="-4" x2="0" y2="24"/>
    <!-- Page lines -->
    <line x1="-20" y1="-4" x2="-8" y2="-2" opacity="0.35"/>
    <line x1="-20" y1="2" x2="-8" y2="4" opacity="0.35"/>
    <line x1="-20" y1="8" x2="-8" y2="10" opacity="0.35"/>
    <line x1="8" y1="-2" x2="20" y2="-4" opacity="0.35"/>
    <line x1="8" y1="4" x2="20" y2="2" opacity="0.35"/>
  </g>
  <text x="200" y="218" text-anchor="middle" fill="#fff" font-family="system-ui,sans-serif" font-size="16" font-weight="600" opacity="0.95">Agrega tu imagen</text>
  <text x="200" y="240" text-anchor="middle" fill="#fff" font-family="system-ui,sans-serif" font-size="12" font-weight="400" opacity="0.65">Inspira a tus alumnos</text>
</svg>
