<svg xmlns="http://www.w3.org/2000/svg" viewBox="0 0 400 400">
  <defs>
    <linearGradient id="g" x1="0%" y1="0%" x2="100%" y2="100%">
      <stop offset="0%" style="stop-color:#c5ddd0"/>
      <stop offset="100%" style="stop-color:#94c4ab"/>
    </linearGradient>
  </defs>
  <rect width="400" height="400" rx="16" fill="url(#g)"/>
  <g transform="translate(200,135)" fill="none" stroke="#fff" stroke-width="2" stroke-linecap="round" stroke-linejoin="round" opacity="0.9">
    <!-- Leaf / spa element -->
    <path d="M0,-20 C-18,-14 -22,4 -14,16 C-6,28 10,24 16,12 C22,0 18,-14 0,-20 Z" fill="#fff" opacity="0.2"/>
    <path d="M0,-20 C0,-4 -6,10 -14,16"/>
    <path d="M-10,0 C-4,4 2,2 8,-2" opacity="0.5"/>
    <path d="M-6,8 C0,12 6,10 12,6" opacity="0.5"/>
    <!-- Water drops -->
    <circle cx="20" cy="-8" r="2" fill="#fff" opacity="0.35"/>
    <circle cx="24" cy="2" r="1.5" fill="#fff" opacity="0.25"/>
  </g>
  <text x="200" y="218" text-anchor="middle" fill="#fff" font-family="system-ui,sans-serif" font-size="16" font-weight="600" opacity="0.95">Agrega tu imagen</text>
  <text x="200" y="240" text-anchor="middle" fill="#fff" font-family="system-ui,sans-serif" font-size="12" font-weight="400" opacity="0.65">Transmiti la experiencia</text>
</svg>
